<svg t="1592387474682" class="icon" viewBox="0 0 1024 1024" version="1.1" xmlns="http://www.w3.org/2000/svg" p-id="1094" width="48" height="48"><path d="M592.809289 996.09953c51.037446-4.25312 102.074891-25.518723 136.099855-119.087374s93.568651-106.328012 153.112338-114.834253c59.543687-12.759361 89.31553-136.099855 17.012481-187.137301 0 0-85.06241-34.024964-63.796807-114.834253s106.328012 17.012482 157.365458-80.809289c51.037446-97.821771-119.087373-55.290566-80.809289-144.606096 38.278084-89.31553 42.531205-216.909144-55.290566-233.921626s-114.834253 221.162265-195.643542 233.921626c-80.809289 12.759361-127.593614-157.365458-182.884181-110.581132s97.821771 246.680988 46.784325 318.984036-106.328012-93.568651-144.606096-46.784326c-42.531205 46.784325 123.340494 144.606096 80.809289 212.656024s-187.137301 8.506241-238.174747 72.303048c-51.037446 63.796807 123.340494 85.06241 148.859217 187.137301 25.518723 106.328012 178.63106 131.846735 221.162265 127.593615z" fill="#FDC510" p-id="1095"></path><path d="M537.518723 996.09953s-4.25312 0 0 0c-4.25312 0-8.506241-4.25312-8.506241-8.506241l208.402903-714.524241c0-4.25312 4.25312-4.25312 8.506241-4.25312s4.25312 4.25312 4.253121 8.506241l-208.402904 714.52424s0 4.25312-4.25312 4.253121z" fill="#FFFFFF" p-id="1096"></path><path d="M597.06241 800.455988c-4.25312 0-4.25312 0-8.506241-4.253121 0-4.25312 0-8.506241 4.25312-8.506241l187.137301-85.062409c4.25312 0 8.506241 0 8.506241 4.25312s0 8.506241-4.25312 8.506241l-187.137301 85.06241c4.25312 0 0 0 0 0zM626.834253 664.356132h-4.253121L512 558.02812c-4.25312-4.25312-4.25312-8.506241 0-12.759361 4.25312-4.25312 8.506241-4.25312 12.759361 0l110.581133 106.328012c4.25312 4.25312 4.25312 8.506241 0 12.759361h-8.506241zM703.390422 468.71259c-4.25312 0-4.25312 0-8.506241-4.25312 0-4.25312 0-8.506241 4.25312-8.506241l148.859217-80.809289c4.25312 0 8.506241 0 8.506241 4.25312s0 8.506241-4.253121 8.506241L703.390422 468.71259z" fill="#FFFFFF" p-id="1097"></path><path d="M431.190711 1013.112012s-25.518723 17.012482-106.328012 8.506241-106.328012-17.012482-136.099855-63.796808c-29.771843-46.784325-51.037446-102.074891-106.328012-114.834253C27.144266 830.227831 5.878663 766.431024 35.650506 766.431024s127.593614 21.265602 131.846735-8.506241-153.112337-140.352976-127.593614-195.643542 97.821771 42.531205 93.56865-25.518723c-4.25312-68.049928-12.759361-89.31553 17.012482-93.56865s38.278084 12.759361 55.290567 38.278084 25.518723 38.278084 89.31553-8.506241 38.278084 89.31553 59.543686 106.328012 80.809289 12.759361 119.087374 8.506241c38.278084-4.25312 51.037446 38.278084 0 63.796807s-85.06241 85.06241-25.518723 106.328012 93.568651 34.024964 59.543687 76.556169c-34.024964 42.531205-34.024964 123.340494-42.531205 140.352975-8.506241 17.012482-21.265602 34.024964-34.024964 38.278085z" fill="#978CFF" p-id="1098"></path><path d="M405.671988 1021.618253c-4.25312 0-4.25312 0-8.506241-4.253121l-136.099855-361.515241c0-4.25312 0-8.506241 4.25312-8.506241s8.506241 0 8.506241 4.253121l136.099856 361.515241c4.25312 0 0 4.25312-4.253121 8.506241z" fill="#FFFFFF" p-id="1099"></path><path d="M346.128301 842.987192H341.875181c-4.25312-4.25312-4.25312-8.506241 0-8.50624l42.531205-63.796808c0-4.25312 4.25312-4.25312 8.506241-4.25312 4.25312 4.25312 4.25312 8.506241 0 8.506241l-42.531205 63.796807c0 4.25312-4.25312 4.25312-4.253121 4.25312zM312.103338 779.190385c-4.25312 0-4.25312 0 0 0l-72.303049-46.784325c-4.25312-4.25312-4.25312-8.506241 0-8.506241 4.25312-4.25312 8.506241-4.25312 8.506241 0l68.049928 42.531205c4.25312 4.25312 4.25312 8.506241 0 8.506241 0 4.25312-4.25312 4.25312-4.25312 4.25312zM367.393904 919.543361s-4.25312 0 0 0l-80.809289-51.037446c-4.25312-4.25312-4.25312-8.506241-4.253121-8.506241s8.506241-8.506241 12.759362-8.506241l76.556168 51.037446c4.25312 4.25312 4.25312 8.506241 4.253121 8.506241-4.25312 4.25312-4.25312 8.506241-8.506241 8.506241z" fill="#FFFFFF" p-id="1100"></path></svg>