<svg t="1592387432629" class="icon" viewBox="0 0 1024 1024" version="1.1" xmlns="http://www.w3.org/2000/svg" p-id="958" width="48" height="48"><path d="M469.333333 789.333333c68.266667-4.266667 132.266667-17.066667 132.266667-110.933333s4.266667-119.466667 46.933333-119.466667 46.933333-8.533333 46.933334-29.866666-25.6-21.333333-25.6-51.2 55.466667-17.066667 55.466666-64-55.466667-21.333333-55.466666-55.466667 42.666667-93.866667-4.266667-98.133333-38.4-55.466667-21.333333-76.8c17.066667-17.066667-4.266667-59.733333-46.933334-25.6s-76.8 38.4-59.733333-25.6c12.8-64 12.8-106.666667-12.8-106.666667s-17.066667 42.666667-38.4 55.466667c-21.333333 8.533333-59.733333-55.466667-81.066667-42.666667s29.866667 81.066667 4.266667 110.933333-34.133333 55.466667-34.133333 98.133334S358.4 311.466667 320 298.666667c-34.133333-12.8-81.066667-34.133333-64 21.333333 17.066667 55.466667 64 93.866667 42.666667 140.8s-25.6 68.266667 12.8 85.333333c38.4 12.8 68.266667 8.533333 72.533333 42.666667 8.533333 38.4 4.266667 200.533333 85.333333 200.533333z" fill="#FDC510" p-id="959"></path><path d="M507.733333 742.4c-4.266667 0-4.266667 0-4.266666-4.266667V337.066667c0-4.266667 0-4.266667 4.266666-4.266667s4.266667 0 4.266667 4.266667v401.066666c0 4.266667-4.266667 4.266667-4.266667 4.266667z" fill="#FFFFFF" p-id="960"></path><path d="M507.733333 541.866667s-4.266667 0 0 0c-4.266667-4.266667-4.266667-4.266667-4.266666-8.533334l81.066666-106.666666s4.266667-4.266667 8.533334 0c0 0 4.266667 4.266667 0 8.533333l-85.333334 106.666667zM507.733333 448s-4.266667 0 0 0l-102.4-85.333333s-4.266667-4.266667 0-8.533334c0 0 4.266667-4.266667 8.533334 0l98.133333 81.066667c0 8.533333 0 12.8-4.266667 12.8z" fill="#FFFFFF" p-id="961"></path><path d="M644.266667 704H354.133333c-25.6 0-46.933333-21.333333-46.933333-46.933333 0-25.6 21.333333-46.933333 46.933333-46.933334h290.133334c25.6 0 46.933333 21.333333 46.933333 46.933334 0 25.6-21.333333 46.933333-46.933333 46.933333z" fill="#A7ADFF" p-id="962"></path><path d="M563.2 1002.666667h-123.733333c-25.6 0-46.933333-17.066667-46.933334-42.666667l-38.4-256h298.666667l-38.4 256c-4.266667 25.6-25.6 42.666667-51.2 42.666667z" fill="#978CFF" p-id="963"></path></svg>